<?xml version="1.0" encoding="UTF-8" standalone="no"?>
<!-- Created with Inkscape (http://www.inkscape.org/) -->

<svg
   xmlns:dc="http://purl.org/dc/elements/1.1/"
   xmlns:cc="http://creativecommons.org/ns#"
   xmlns:rdf="http://www.w3.org/1999/02/22-rdf-syntax-ns#"
   xmlns:svg="http://www.w3.org/2000/svg"
   xmlns="http://www.w3.org/2000/svg"
   xmlns:xlink="http://www.w3.org/1999/xlink"
   xmlns:sodipodi="http://sodipodi.sourceforge.net/DTD/sodipodi-0.dtd"
   xmlns:inkscape="http://www.inkscape.org/namespaces/inkscape"
   width="100"
   height="100"
   viewBox="0 0 100 100"
   id="svg2"
   version="1.1"
   inkscape:version="0.91 r13725"
   sodipodi:docname="drawing-2.svg">
  <defs
     id="defs4">
    <pattern
       inkscape:collect="always"
       xlink:href="#pattern7784"
       id="pattern8507"
       patternTransform="translate(0.49999639,0.49996635)" />
    <pattern
       patternUnits="userSpaceOnUse"
       width="327.50001"
       height="303.61607"
       patternTransform="translate(266.25,436.26846)"
       id="pattern7784">
      <path
         inkscape:connector-curvature="0"
         id="path4167"
         d="M 0,151.80804 0,0 l 163.75001,0 163.75,0 0,151.80804 0,151.80803 -163.75,0 -163.75001,0 0,-151.80803 z m 98.44985,66.04633 c 6.86906,-8.13256 13.7749,-16.15799 15.34631,-17.83426 1.57137,-1.67628 10.83681,-0.15731 20.58986,3.37505 C 205.32689,229.09011 280.65605,158.10176 245.62112,98.57 240.61547,90.06442 231.91624,79.27539 226.28951,74.59435 211.86261,62.59237 182.34265,51.44853 164.70597,51.34646 149.33171,51.25726 117.97293,62.96852 102.99692,74.39192 72.94823,97.3123 68.45716,148.83415 94.09697,176.49201 l 14.09269,15.20189 -15.31768,17.51622 c -8.42476,9.63386 -15.36903,18.84696 -15.43166,20.47344 -0.27996,7.26942 9.55563,1.73159 21.00953,-11.82919 z m 47.66431,-20.6707 C 113.63193,190.45408 86.63708,161.09736 86.49842,132.35188 86.19567,69.56893 177.83518,38.71549 223.84057,86.11113 c 50.00498,51.51609 -2.56783,126.64363 -77.72641,111.07254 z"
         style="fill:#000000" />
    </pattern>
    <pattern
       patternUnits="userSpaceOnUse"
       width="328.5"
       height="304.61606"
       patternTransform="translate(237.17857,555.76849)"
       id="pattern9274">
      <rect
         id="rect7787"
         y="0.5"
         x="0.5"
         height="303.61606"
         width="327.5"
         style="fill:url(#pattern8507);stroke:#b6ea00;stroke-opacity:1" />
    </pattern>
  </defs>
  <sodipodi:namedview
     id="base"
     pagecolor="#ffffff"
     bordercolor="#666666"
     borderopacity="1.0"
     inkscape:pageopacity="0.0"
     inkscape:pageshadow="2"
     inkscape:zoom="0.35"
     inkscape:cx="-62.142857"
     inkscape:cy="520"
     inkscape:document-units="px"
     inkscape:current-layer="layer1"
     showgrid="false"
     units="px"
     inkscape:window-width="1366"
     inkscape:window-height="705"
     inkscape:window-x="-8"
     inkscape:window-y="-8"
     inkscape:window-maximized="1" />
  <metadata
     id="metadata7">
    <rdf:RDF>
      <cc:Work
         rdf:about="">
        <dc:format>image/svg+xml</dc:format>
        <dc:type
           rdf:resource="http://purl.org/dc/dcmitype/StillImage" />
        <dc:title></dc:title>
      </cc:Work>
    </rdf:RDF>
  </metadata>
  <g
     inkscape:label="Layer 1"
     inkscape:groupmode="layer"
     id="layer1"
     transform="translate(0,-952.36206)"
     style="display:inline">
    <path
       style="fill:#ffffff;fill-opacity:1"
       d="m 48.571387,1060.8668 -48.66072561,0 0,-52.7903 0,-52.79011 48.66072561,0 48.660725,0 0,52.79011 0,52.7903 -48.660725,0 z m -5.033873,-21.6946 12.584672,0 0,-5.7854 0,-5.7851 3.308343,0 3.308338,0 1.306039,-3.2144 1.306038,-3.2145 0,-12.2195 0,-12.21941 -1.388496,-2.64495 -1.388495,-2.64497 -3.22588,0 -3.225887,0 0,-8.67776 0,-8.67784 -12.584672,0 -12.584658,0 0,8.67784 0,8.67776 -3.588955,0 -3.588949,0 -1.444917,2.90916 -1.444917,2.90916 0,11.82231 0,11.8223 1.824203,3.3474 1.824182,3.3474 3.20969,0 3.209663,0 0,5.7851 0,5.7854 12.584658,0 z m 0,-2.8926 -10.90671,0 0,-13.7399 0,-13.74 10.90671,0 10.906719,0 0,13.74 0,13.7399 -10.906719,0 z m -1.307979,-5.7854 8.858785,0 0,-1.4462 0,-1.4463 -8.340268,0 -8.340269,0 -0.518517,1.4463 -0.518517,1.4462 8.858786,0 z m -4.614376,-5.7851 4.244402,0 0,-1.4462 0,-1.4465 -3.725885,0 -3.725893,0 -0.518517,1.4465 -0.518517,1.4462 4.24441,0 z m 5.083383,-5.7852 8.389778,0 0,-1.4464 0,-1.4463 -8.389778,0 -8.389793,0 0,1.4463 0,1.4464 8.389793,0 z m -14.579399,5.7852 -2.833679,0 -0.975578,-2.0264 -0.975577,-2.0266 0.24361,-12.7981 0.243608,-12.79824 19.237015,-0.38938 19.237006,-0.38937 0.675875,1.83565 0.675873,1.8358 0.0128,11.64274 0.0128,11.6427 -1.006776,1.7355 -1.006768,1.7357 -2.768634,0 -2.768628,0 0,-9.401 0,-9.4011 -12.584664,0 -12.584665,0 0,9.4011 0,9.401 -2.833706,0 z m 15.418371,-33.26513 -10.90671,0 0,-6.50831 0,-6.50837 10.90671,0 10.906719,0 0,6.50837 0,6.50831 -10.906719,0 z"
       id="path9621"
       inkscape:connector-curvature="0" />
    <rect
       style="opacity:1;fill:none;fill-opacity:1;stroke:#ffffff;stroke-width:17.89999962;stroke-linecap:round;stroke-linejoin:round;stroke-miterlimit:4;stroke-dasharray:none;stroke-opacity:1"
       id="rect9371"
       width="157.14285"
       height="125.71429"
       x="100"
       y="295.21927" />
  </g>
  <g
     style="display:inline"
     transform="translate(0,-952.36206)"
     id="g9572"
     inkscape:groupmode="layer"
     inkscape:label="Layer 1 copy">
    <rect
       y="295.21927"
       x="100"
       height="125.71429"
       width="157.14285"
       id="rect9578"
       style="opacity:1;fill:none;fill-opacity:1;stroke:#ffffff;stroke-width:17.89999962;stroke-linecap:round;stroke-linejoin:round;stroke-miterlimit:4;stroke-dasharray:none;stroke-opacity:1" />
  </g>
</svg>
